# xmcd
#
# Track frame offsets: 
#        150
#        17321
#        30155
#        40922
#        50321
#        60057
#
# Disc length: 948 seconds
#
# Revision: 2
# Processed by: cddbd v1.5.2PL0 Copyright (c) Steve Scherf et al.
# Submitted via: ExactAudioCopyFreeDBPlugin 1.0
#
DISCID=3003b206
DTITLE=Elvis Costello - Singles, Volume 2
DYEAR=2003
DGENRE=Country
TTITLE0=I'm Your Toy (Live)
TTITLE1=Cry Cry Cry
TTITLE2=Wondering
TTITLE3=My Shoes Keep Walking Back to You
TTITLE4=Blues Keep Calling
TTITLE5=Honky Tonk Girl
EXTD=YEAR: 1982
EXTT0=
EXTT1=
EXTT2=
EXTT3=
EXTT4=
EXTT5=
PLAYORDER=
